<svg xmlns="http://www.w3.org/2000/svg" width="500" height="500" viewBox="0 0 2880 2880" version="1.1">
<path d="M 2312.179 131.868 C 2310.456 132.961, 2310.080 140.718, 2309.026 197 C 2308.557 222.025, 2307.861 243.498, 2307.479 244.717 C 2307.097 245.936, 2306.045 247.162, 2305.142 247.441 C 2295.480 250.423, 1240.290 256.652, 431.500 258.500 C 300.600 258.799, 181.238 259.310, 166.250 259.636 L 139 260.228 139 371.542 L 139 482.857 1195.750 483.404 C 1776.963 483.704, 2264.500 484.299, 2279.168 484.725 C 2293.835 485.151, 2306.134 485.799, 2306.499 486.164 C 2307.899 487.567, 2308.985 501.642, 2309.994 531.500 C 2311.004 561.376, 2311.939 572.005, 2313.968 576.712 C 2314.836 578.722, 2315.221 578.820, 2318.211 577.786 C 2327.020 574.740, 2412.223 531.001, 2437.490 516.553 C 2443.546 513.091, 2464.250 501.825, 2483.500 491.519 C 2502.750 481.213, 2521.875 470.864, 2526 468.522 C 2530.125 466.181, 2557.125 451.444, 2586 435.775 C 2662.255 394.393, 2686.108 380.042, 2686.829 375.107 C 2687.346 371.571, 2682.637 368.065, 2642 341.720 C 2573.539 297.336, 2505.355 252.867, 2428.500 202.474 C 2339.893 144.376, 2329.552 137.747, 2321.500 133.882 C 2315.023 130.773, 2314.190 130.593, 2312.179 131.868 M 662.500 736.971 C 119.516 737.524, 139 737.356, 139 741.487 C 139 742.267, 141.248 745.513, 143.996 748.702 C 153.522 759.757, 160.635 769.599, 173.485 789.500 C 187.633 811.411, 222.389 864.124, 325.463 1020 C 362.741 1076.375, 417.910 1159.850, 448.060 1205.500 C 478.210 1251.150, 530.540 1330.350, 564.349 1381.500 C 678.049 1553.520, 739.848 1647.043, 793.325 1728.018 C 888.763 1872.531, 966.505 1990.176, 1014.025 2062 C 1089.480 2176.045, 1167.062 2293.481, 1273.983 2455.500 C 1392.172 2634.591, 1400.591 2647.172, 1405.973 2652.750 C 1412.122 2659.122, 1413.779 2658.683, 1421.104 2648.750 C 1428.336 2638.941, 1490.184 2546.328, 1540.475 2470 C 1560.224 2440.025, 1605.399 2371.625, 1640.864 2318 C 1705.513 2220.245, 1772.262 2119.186, 1858.496 1988.500 C 1883.900 1950, 1946.646 1855.050, 1997.931 1777.500 C 2049.216 1699.950, 2106.099 1613.888, 2124.338 1586.251 C 2207.830 1459.740, 2347.566 1248.319, 2469.515 1064 C 2616.365 842.043, 2624.768 829.219, 2649.808 788.850 C 2656.511 778.043, 2664.917 765.218, 2668.488 760.350 C 2680.443 744.050, 2681.822 740.576, 2677.212 738.363 C 2673.622 736.640, 1668.084 735.945, 662.500 736.971 M 777.500 1043.984 C 722.476 1044.755, 713 1045.279, 713 1047.550 C 713 1050.584, 715.748 1055.407, 726.929 1072 C 733.414 1081.625, 744.787 1098.950, 752.202 1110.500 C 776.363 1148.136, 810.178 1199.765, 856.851 1270.282 C 902.625 1339.441, 949.454 1410.310, 1069.437 1592 C 1104.487 1645.075, 1151.165 1715.725, 1173.167 1749 C 1195.170 1782.275, 1251.633 1867.775, 1298.641 1939 C 1413.733 2113.382, 1402.626 2097.066, 1408.098 2099.783 C 1413.473 2102.452, 1416.392 2101.846, 1419.938 2097.328 C 1421.159 2095.773, 1428.332 2084.825, 1435.879 2073 C 1455.242 2042.659, 1490.200 1989.566, 1643.287 1758 C 1672.193 1714.275, 1731.086 1625.175, 1774.160 1560 C 1817.234 1494.825, 1889.567 1385.475, 1934.900 1317 C 2035.138 1165.592, 2073.355 1107.568, 2078.483 1099 C 2080.623 1095.425, 2087.737 1084.400, 2094.292 1074.500 C 2100.847 1064.600, 2107.089 1054.779, 2108.164 1052.675 C 2111.718 1045.716, 2111.477 1045.586, 2093.489 1044.809 C 2071.163 1043.844, 842.452 1043.074, 777.500 1043.984" 
stroke="none" fill="#009934" fill-rule="evenodd"/>
</svg>